HIERARCHY
ROOT hip
{
	OFFSET 0.000000 0.000000 0.000000 
	CHANNELS 6 Xposition Yposition Zposition Xrotation Zrotation Yrotation
	JOINT abdomen
	{
		OFFSET 0.000000 3.402643 0.000000 
		CHANNELS 3 Xrotation Zrotation Yrotation
		JOINT chest
		{
			OFFSET 0.000000 8.438565 -0.680529 
			CHANNELS 3 Xrotation Zrotation Yrotation
			JOINT neck
			{
				OFFSET 0.000000 10.207942 -0.272212 
				CHANNELS 3 Xrotation Zrotation Yrotation
				JOINT head
				{
					OFFSET 0.000000 3.130431 0.000000 
					CHANNELS 3 Xrotation Zrotation Yrotation
					End Site
					{
						OFFSET 0.000000 3.130435 0.000000 
					}
				}
			}
			JOINT lCollar
			{
				OFFSET 3.470700 6.669187 -0.816635 
				CHANNELS 3 Yrotation Zrotation Xrotation
				JOINT lShldr
				{
					OFFSET 3.198488 0.000000 0.000000 
					CHANNELS 3 Zrotation Yrotation Xrotation
					JOINT lForeArm
					{
						OFFSET 10.139888 0.000000 0.000000 
						CHANNELS 3 Yrotation Zrotation Xrotation
						JOINT lHand
						{
							OFFSET 8.370511 0.000000 0.000000 
							CHANNELS 3 Zrotation Yrotation Xrotation
							End Site
							{
								OFFSET 4.083176 0.000000 0.000000 
							}
						}
					}
				}
			}
			JOINT rCollar
			{
				OFFSET -3.470700 6.669187 -0.816635 
				CHANNELS 3 Yrotation Zrotation Xrotation
				JOINT rShldr
				{
					OFFSET -3.198488 0.000000 0.000000 
					CHANNELS 3 Zrotation Yrotation Xrotation
					JOINT rForeArm
					{
						OFFSET -10.139888 0.000000 0.000000 
						CHANNELS 3 Yrotation Zrotation Xrotation
						JOINT rHand
						{
							OFFSET -8.370511 0.000000 0.000000 
							CHANNELS 3 Zrotation Yrotation Xrotation
							End Site
							{
								OFFSET -4.083176 0.000000 0.000000 
							}
						}
					}
				}
			}
		}
	}
	JOINT lThigh
	{
		OFFSET 5.308129 -1.633274 1.361059 
		CHANNELS 3 Xrotation Zrotation Yrotation
		JOINT lShin
		{
			OFFSET -2.041588 -20.007561 0.000000 
			CHANNELS 3 Xrotation Zrotation Yrotation
			JOINT lFoot
			{
				OFFSET 0.000000 -19.190928 -1.224953 
				CHANNELS 3 Xrotation Yrotation Zrotation
				End Site
				{
					OFFSET 0.000000 -2.449906 4.627600 
				}
			}
		}
	}
	JOINT rThigh
	{
		OFFSET -5.308129 -1.633274 1.361059 
		CHANNELS 3 Xrotation Zrotation Yrotation
		JOINT rShin
		{
			OFFSET 2.041588 -20.007561 0.000000 
			CHANNELS 3 Xrotation Zrotation Yrotation
			JOINT rFoot
			{
				OFFSET 0.000000 -19.190928 -1.224953 
				CHANNELS 3 Xrotation Yrotation Zrotation
				End Site
				{
					OFFSET 0.000000 -2.449906 4.627600 
				}
			}
		}
	}
}
MOTION
Frames: 15
Frame Time: 0.033333
-1.556513 21.776056 -15.745631 65.586082 0.887819 -2.509918 3.582875 1.015588 0.488378 18.007942 -2.636700 -0.215515 -8.928495 3.062287 -2.972854 5.704161 1.113247 -0.449134 -0.178510 3.607822 -6.506922 -21.649940 -57.352764 14.766989 -66.672050 27.036608 13.465800 8.085008 4.696274 -15.054990 0.543631 1.318409 -7.326090 23.347181 52.949177 18.187178 67.979324 -27.405525 14.098414 -8.091956 -4.708123 -15.053458 -3.378655 -5.410019 -7.713641 19.581163 -0.673264 2.926023 35.736614 10.079490 -0.800840 6.621366 3.750222 5.288677 6.966729 -0.020693 0.030145 51.410480 -8.223216 0.393774 
-1.568230 21.802908 -15.754128 65.832085 0.848801 -2.500159 3.614033 1.142530 0.527628 18.398493 -2.617169 -0.215511 -9.004600 2.984161 -3.011864 5.713850 1.123012 -0.449132 -0.204311 3.739942 -6.635467 -17.398325 -58.583988 10.905128 -64.378471 26.397709 12.428360 8.085008 4.696274 -15.054990 0.528355 1.398195 -7.482789 19.943413 54.539719 15.170771 65.618584 -26.778690 13.024197 -8.091956 -4.708123 -15.053458 -3.378657 -5.410021 -7.713642 19.581163 -0.673261 2.926023 35.726089 10.077003 -0.790908 6.621364 3.750221 5.288677 6.966729 -0.020694 0.030145 51.410545 -8.219112 0.384585 
-1.579947 21.829762 -15.762622 66.077499 0.819532 -2.500163 3.655346 1.269467 0.576463 18.779720 -2.597636 -0.225264 -9.080597 2.906039 -3.050380 5.723346 1.132776 -0.458895 -0.230182 3.872154 -6.753664 -12.853549 -59.660133 6.748249 -62.105518 25.709934 11.431919 8.085008 4.696274 -15.054990 0.523450 1.476687 -7.649019 16.237198 56.006153 11.838511 63.291954 -26.106886 11.984888 -8.091956 -4.708123 -15.053458 -3.378659 -5.410020 -7.713642 19.581163 -0.673264 2.926023 35.726295 10.079907 -0.800060 6.621367 3.750217 5.288677 6.966729 -0.020693 0.030145 51.402878 -8.213888 0.409762 
-1.584360 21.844231 -15.752170 66.213516 0.848826 -2.461101 3.615562 1.308538 0.527652 19.220505 -2.597631 -0.254531 -9.148703 2.837594 -3.118663 5.762372 1.162074 -0.449126 -0.221501 3.999562 -6.803721 -8.920095 -60.470078 3.053675 -59.725079 24.959852 10.407193 8.085008 4.696274 -15.054990 0.538598 1.572741 -7.727642 11.989855 57.466534 8.066692 60.511673 -25.247528 10.784092 -8.091956 -4.708123 -15.053458 -3.378655 -5.410021 -7.713641 19.581163 -0.673264 2.926023 35.724689 10.082145 -0.790765 6.621366 3.750222 5.288677 6.966729 -0.020690 0.030145 51.401398 -8.217113 0.392487 
-1.588773 21.858698 -15.741716 66.358925 0.887878 -2.422038 3.575940 1.347607 0.488606 19.661238 -2.587859 -0.283796 -9.217117 2.769128 -3.196704 5.810970 1.191370 -0.449122 -0.214469 4.117225 -6.844075 -4.801024 -61.148083 -0.824119 -57.372463 24.162443 9.435242 8.085008 4.696274 -15.054990 0.555338 1.678432 -7.806017 7.394796 58.770016 3.948843 57.775558 -24.333908 9.634617 -8.091956 -4.708123 -15.053458 -3.378657 -5.410019 -7.713641 19.581163 -0.673262 2.926023 35.728489 10.075472 -0.809415 6.621364 3.750221 5.288677 6.966729 -0.020693 0.030145 51.400928 -8.220448 0.392814 
-1.600365 21.859613 -15.731763 66.429993 0.858668 -2.324397 3.877221 1.435512 0.400754 19.996862 -2.529244 -0.371594 -9.584476 2.710651 -3.186956 5.870173 1.191374 -0.419831 -0.261772 4.184396 -7.030487 -1.184652 -61.602875 -4.387569 -55.102688 23.354647 8.517113 8.085008 4.696274 -15.054990 0.512993 1.683235 -8.011334 3.493485 59.955803 0.110456 55.037186 -23.361456 8.526334 -8.091956 -4.708123 -15.053458 -3.378659 -5.410018 -7.713641 19.581163 -0.673264 2.926023 35.736710 10.075512 -0.791756 6.621364 3.750221 5.288677 6.966729 -0.020691 0.030145 51.411034 -8.215660 0.384249 
-1.611957 21.860527 -15.721816 66.510857 0.829457 -2.216989 4.168727 1.523413 0.322411 20.341570 -2.460862 -0.449643 -9.961622 2.652173 -3.177203 5.939142 1.191379 -0.390541 -0.308640 4.251916 -7.216892 2.559122 -61.949112 -8.087393 -52.859360 22.504366 7.643083 8.085008 4.696274 -15.054990 0.480356 1.686968 -8.216640 -0.701119 60.999943 -4.011730 52.346748 -22.342924 7.482475 -8.091956 -4.708123 -15.053458 -3.378658 -5.410020 -7.713642 19.581163 -0.673266 2.926022 35.734829 10.082430 -0.791580 6.621365 3.750222 5.288678 6.966729 -0.020693 0.030145 51.402489 -8.216658 0.410043 
-1.624096 21.855509 -15.700792 66.543602 0.770952 -2.128976 4.242543 1.562494 0.156458 20.702858 -2.353437 -0.469157 -10.268023 2.623165 -3.079203 5.998458 1.142554 -0.371020 -0.341398 4.226522 -7.216851 5.765730 -62.114067 -11.401150 -50.747196 21.675755 6.849707 8.085008 4.696274 -15.054990 0.446888 1.662233 -8.206616 -4.106198 61.807911 -7.769011 49.983845 -21.407291 6.602224 -8.091956 -4.708123 -15.053458 -3.378659 -5.410019 -7.713642 19.581163 -0.673262 2.926023 35.727348 10.072378 -0.791036 6.621365 3.750222 5.288678 6.966729 -0.020691 0.030145 51.401627 -8.219106 0.401475 
-1.636234 21.850481 -15.679775 66.565941 0.722193 -2.050864 4.316406 1.611328 0.000275 21.074135 -2.236244 -0.498430 -10.584290 2.594145 -2.981207 6.057986 1.083965 -0.341736 -0.374873 4.201063 -7.206352 9.040839 -62.183025 -14.784819 -48.672176 20.827477 6.093828 8.085008 4.696274 -15.054990 0.414822 1.647153 -8.196877 -7.680733 62.507008 -11.687165 47.642231 -20.440825 5.771481 -8.091956 -4.708123 -15.053458 -3.378656 -5.410020 -7.713642 19.581163 -0.673263 2.926023 35.726460 10.082931 -0.809216 6.621365 3.750222 5.288677 6.966729 -0.020694 0.030145 51.402103 -8.219361 0.410307 
-1.645868 21.826721 -15.658014 66.608337 0.663680 -1.943455 4.315618 1.542969 -0.029286 21.338511 -2.148343 -0.537830 -10.675970 2.711293 -2.932872 6.146550 1.132798 -0.292912 -0.428077 4.304556 -7.109618 11.746449 -62.205811 -17.625025 -46.599625 19.935863 5.374258 8.085008 4.696274 -15.054990 0.351315 1.764911 -8.148419 -11.448134 62.650742 -15.295256 45.555038 -19.527390 5.054799 -8.091956 -4.708123 -15.053458 -3.378660 -5.410018 -7.713641 19.581163 -0.673264 2.926023 35.716534 10.078208 -0.799291 6.621364 3.750221 5.288677 6.966729 -0.020692 0.030145 51.401653 -8.211664 0.383169 
-1.655502 21.802961 -15.636253 66.650520 0.605158 -1.835938 4.324424 1.464843 -0.068337 21.603012 -2.050674 -0.586611 -10.777710 2.838203 -2.884093 6.225433 1.181630 -0.244089 -0.481633 4.407879 -7.012167 14.469871 -62.161137 -20.487783 -44.568676 19.022047 4.702668 8.085008 4.696274 -15.054990 0.298332 1.890905 -8.090517 -15.224753 62.680672 -18.910370 43.499569 -18.583820 4.389045 -8.091956 -4.708123 -15.053458 -3.378656 -5.410020 -7.713641 19.581163 -0.673263 2.926023 35.716251 10.079257 -0.799294 6.621366 3.750219 5.288677 6.966729 -0.020693 0.030145 51.383476 -8.206754 0.398867 
-1.668920 21.783539 -15.601362 66.722099 0.527096 -1.757828 4.412175 1.582030 -0.068333 21.916142 -2.011603 -0.615883 -11.226928 2.838203 -2.884092 6.382004 1.152334 -0.234328 -0.538887 4.448518 -7.227739 16.547281 -62.341965 -24.230520 -42.158241 17.919125 3.934908 8.085008 4.696274 -15.054990 0.271104 1.855304 -8.315013 -17.322294 62.478916 -21.553366 41.944820 -17.853899 3.900960 -8.091956 -4.708123 -15.053458 -3.378658 -5.410018 -7.713641 19.581163 -0.673263 2.926023 35.716759 10.081028 -0.808428 6.621365 3.750222 5.288677 6.966729 -0.020694 0.030145 51.391163 -8.215506 0.382843 
-1.682338 21.764112 -15.566472 66.803238 0.449026 -1.679712 4.499622 1.708983 -0.078090 22.229454 -1.962763 -0.654916 -11.676153 2.847980 -2.874338 6.528609 1.123038 -0.234330 -0.585390 4.488487 -7.453812 18.646811 -62.467415 -27.986446 -39.788975 16.785511 3.225991 8.085008 4.696274 -15.054990 0.234256 1.821355 -8.549275 -19.390564 62.220127 -24.181555 40.404530 -17.126497 3.431708 -8.091956 -4.708123 -15.053458 -3.378662 -5.410019 -7.713641 19.581163 -0.673263 2.926023 35.728237 10.072742 -0.800254 6.621364 3.750221 5.288677 6.966729 -0.020693 0.030145 51.411118 -8.218709 0.393344 
-1.696766 21.730902 -15.537367 66.960571 0.429518 -1.611356 4.537279 1.826168 -0.117128 22.416939 -2.040870 -0.684203 -12.075572 2.857807 -2.845076 6.646690 1.142572 -0.185510 -0.591037 4.600009 -7.572129 19.275553 -62.304810 -30.931751 -38.292969 16.043806 2.797408 8.085008 4.696274 -15.054990 0.239923 1.889759 -8.706080 -20.075462 61.625858 -26.091913 39.769245 -16.807329 3.254414 -8.091956 -4.708123 -15.053458 -3.378658 -5.410019 -7.713642 19.581163 -0.673263 2.926023 35.738194 10.077339 -0.810154 6.621364 3.750221 5.288677 6.966729 -0.020692 0.030145 51.401905 -8.209882 0.382999 
-1.711192 21.697689 -15.508263 67.127693 0.410009 -1.533234 4.584542 1.943352 -0.156160 22.595097 -2.118972 -0.723245 -12.474491 2.867656 -2.806062 6.755016 1.171872 -0.136690 -0.595420 4.711674 -7.700986 19.897242 -62.126328 -33.876453 -36.818298 15.290536 2.394372 8.085008 4.696274 -15.054990 0.245966 1.958144 -8.862905 -20.722261 61.021202 -27.967556 39.136501 -16.503950 3.073912 -8.091956 -4.708123 -15.053458 -3.378660 -5.410019 -7.713642 19.581163 -0.673266 2.926022 35.736042 10.081617 -0.800822 6.621366 3.750220 5.288677 6.966729 -0.020694 0.030145 51.383724 -8.204983 0.398718 
